<?xml version="1.0" encoding="utf-8"?>
<!-- Generator: Adobe Illustrator 25.0.0, SVG Export Plug-In . SVG Version: 6.00 Build 0)  -->
<svg version="1.1" id="Layer_1" xmlns="http://www.w3.org/2000/svg" xmlns:xlink="http://www.w3.org/1999/xlink" x="0px" y="0px"
	 viewBox="0 0 144 59" style="enable-background:new 0 0 144 59;" xml:space="preserve">
<style type="text/css">
	.st0{fill:#02ADF7;}
	.st1{font-family:'BookAntiqua-Bold';}
	.st2{font-size:21.5701px;}
</style>
<desc>Created with Sketch.</desc>
<g id="Artboard">
	<g>
		<g>
			<path class="st0" d="M85.3,7.9l-2.3,0V5.5c0-0.5-0.4-1-0.9-1.1c-0.1,0-2.4-0.3-5.1,0.2c-3,0.6-5.5,1.9-7.1,4
				c-1.6-2.1-4.1-3.4-7.1-4c-2.7-0.5-5-0.2-5.1-0.2c-0.5,0.1-0.9,0.5-0.9,1.1v2.4h-2.3c-0.6,0-1.1,0.5-1.1,1.1V30
				c0,0.4,0.2,0.7,0.5,0.9c0.3,0.2,0.7,0.3,1,0.1c0.1,0,8.4-2.9,14.6,0c0.3,0.1,0.6,0.1,0.9,0c6.2-2.8,14.5,0,14.6,0
				c0.1,0,0.2,0.1,0.4,0.1c0.2,0,0.5-0.1,0.6-0.2c0.3-0.2,0.5-0.5,0.5-0.9V9C86.4,8.4,85.9,7.9,85.3,7.9z M55.5,28.5V10.1h1.2v14.8
				c0,0.3,0.1,0.6,0.4,0.8c0.2,0.2,0.6,0.3,0.9,0.3c0.1,0,4.9-0.7,8.4,1.7C62.1,27,57.8,27.9,55.5,28.5z M68.8,26.8
				c-1.6-1.4-3.6-2.4-6-2.8c-1.2-0.2-2.2-0.3-3.1-0.3c-0.3,0-0.5,0-0.7,0V6.5h0c2.1-0.1,7.3,0.1,9.8,4.3V26.8z M71,10.8
				c2.4-4.2,7.7-4.4,9.8-4.3v17.2c-0.9,0-2.3,0-3.8,0.3c-2.4,0.4-4.4,1.4-6,2.8V10.8L71,10.8z M73.3,27.8c3.5-2.4,8.4-1.8,8.4-1.7
				c0.3,0,0.6,0,0.9-0.3c0.2-0.2,0.4-0.5,0.4-0.8V10.1h1.2v18.3C82,27.9,77.6,27,73.3,27.8z"/>
		</g>
	</g>
	<text transform="matrix(1 0 0 1 22.3568 50.2262)" class="st0 st1 st2">LookBook</text>
</g>
</svg>
